<svg width="216" height="40" viewBox="0 0 216 40" fill="none" xmlns="http://www.w3.org/2000/svg">
<g clip-path="url(#clip0_444_7497)">
<path d="M22.1506 31.9354H12.0158C9.833 31.9354 8.06432 30.1667 8.06432 27.9839C8.06432 27.9558 8.04327 27.9417 8.02221 27.9417H0.0421113C0.0421113 27.9417 0 27.9558 0 27.9839C0 34.6096 5.39025 40 12.0158 40H22.1506C28.7761 40 34.1663 34.6096 34.1663 27.9839C34.1663 21.3581 28.7761 15.9677 22.1506 15.9677H12.0158C9.833 15.9677 8.06432 14.199 8.06432 12.0161C8.06432 9.8333 9.84002 8.06457 12.0158 8.06457H22.1506C24.3333 8.06457 26.102 9.84032 26.102 12.0161C26.102 12.0372 26.1231 12.0583 26.1441 12.0583H34.1242C34.1242 12.0583 34.1663 12.0372 34.1663 12.0161C34.1663 5.39042 28.7761 0 22.1506 0H12.0158C5.39025 0 0 5.39042 0 12.0161C0 18.6419 5.39025 24.0323 12.0158 24.0323H22.1506C24.3333 24.0323 26.102 25.808 26.102 27.9839C26.102 30.1597 24.3333 31.9354 22.1506 31.9354Z" fill="#101820"/>
<path d="M37.8234 8.06457H50.8217V39.9579C50.8217 39.9579 50.8428 40 50.8638 40H58.851C58.851 40 58.8931 39.9789 58.8931 39.9579V8.06457H71.8914C71.8914 8.06457 71.9335 8.04352 71.9335 8.02246V0.0421126C71.9335 0.0421126 71.9125 0 71.8914 0H37.8234C37.8234 0 37.7812 0.0210563 37.7812 0.0421126V8.02246C37.7812 8.02246 37.7953 8.06457 37.8234 8.06457Z" fill="#101820"/>
<path d="M111.134 0.0210563C111.134 0.0210563 111.113 0 111.099 0H102.312C102.312 0 102.277 0.00701877 102.277 0.0210563L94.0652 17.7856L85.8605 0.0280751C85.8605 0.0280751 85.8395 0.00701877 85.8254 0.00701877H77.0382C77.0382 0.00701877 77.0101 0.00701877 77.0031 0.0280751C77.0031 0.0421126 76.9961 0.0561502 77.0031 0.063169L89.6435 27.4224L90.0436 28.2927V39.9579C90.0436 39.9579 90.0647 40 90.0857 40H98.0658C98.0658 40 98.1079 39.9789 98.1079 39.9579V28.2927L98.508 27.4224L111.141 0.063169C111.148 0.0491314 111.141 0.0350939 111.141 0.0280751L111.134 0.0210563Z" fill="#101820"/>
<path d="M116.244 40H150.313C150.313 40 150.355 39.9789 150.355 39.9579V31.9705C150.355 31.9705 150.334 31.9284 150.313 31.9284H124.267V0.0421126C124.267 0.0421126 124.253 0 124.225 0H116.237C116.237 0 116.195 0.0210563 116.195 0.0421126V39.9579C116.195 39.9579 116.216 40 116.237 40H116.244Z" fill="#101820"/>
<path d="M173.606 22.9225V0.0413189C173.606 0.0413189 173.585 -0.000793725 173.564 -0.000793725H155.456C155.456 -0.000793725 155.414 0.0202626 155.414 0.0413189V22.9225C155.414 27.9339 159.492 32.0189 164.51 32.0189C169.528 32.0189 173.613 27.941 173.613 22.9225H173.606ZM200.024 -0.000793725H181.537C181.537 -0.000793725 181.495 0.0202626 181.495 0.0413189V22.9225C181.495 32.2926 173.873 39.915 164.503 39.915C164.482 39.915 164.461 39.936 164.461 39.9571C164.461 39.9781 164.482 39.9992 164.503 39.9992H189.517C189.517 39.9992 189.559 39.9781 189.559 39.9571V31.2538H200.024C200.291 31.2538 200.557 31.2468 200.81 31.2328C203.61 31.0924 206.313 30.201 208.629 28.6639C213.029 25.7651 215.647 20.8871 215.647 15.623C215.647 7.00394 208.636 -0.0078125 200.017 -0.0078125L200.024 -0.000793725ZM204.383 21.8065C203.112 22.712 201.603 23.1892 200.024 23.1892H189.559V8.06378H200.024C204.193 8.06378 207.59 11.4538 207.59 15.623C207.59 18.0796 206.39 20.3817 204.383 21.7995V21.8065Z" fill="#101820"/>
</g>
<defs>
<clipPath id="clip0_444_7497">
<rect width="215.652" height="40" fill="white"/>
</clipPath>
</defs>
</svg>
